<?xml version="1.0" encoding="UTF-8"?>
<svg class="our-links" xmlns="http://www.w3.org/2000/svg" viewBox="0 0 102.56 100">
  <g>
    <path d="m34.3,80.52c0,.41-.48.74-1.08.74-.68.06-1.16-.27-1.16-.74,0-.41.48-.74,1.08-.74.62-.06,1.16.27,1.16.74Zm-6.43-.93c-.14.41.27.89.89,1.01.54.21,1.16,0,1.28-.41s-.27-.89-.89-1.08c-.54-.14-1.14.06-1.28.48h0Zm9.14-.35c-.6.14-1.01.54-.95,1.01.06.41.6.68,1.22.54.6-.14,1.01-.54.95-.95-.06-.39-.62-.66-1.22-.6ZM50.62,0C21.94,0,0,21.77,0,50.45c0,22.93,14.43,42.56,35.05,49.46,2.65.48,3.58-1.16,3.58-2.5s-.06-8.35-.06-12.7c0,0-14.47,3.1-17.51-6.16,0,0-2.36-6.02-5.75-7.57,0,0-4.74-3.25.33-3.18,0,0,5.15.41,7.98,5.33,4.53,7.98,12.12,5.69,15.07,4.32.48-3.31,1.82-5.6,3.31-6.97-11.56-1.28-23.22-2.96-23.22-22.85,0-5.69,1.57-8.54,4.88-12.18-.54-1.34-2.3-6.89.54-14.04,4.32-1.34,14.27,5.58,14.27,5.58,4.14-1.16,8.58-1.76,12.99-1.76s8.85.6,12.99,1.76c0,0,9.95-6.95,14.27-5.58,2.83,7.18,1.08,12.7.54,14.04,3.31,3.66,5.33,6.51,5.33,12.18,0,19.95-12.18,21.55-23.74,22.85,1.9,1.63,3.52,4.74,3.52,9.59,0,6.97-.06,15.59-.06,17.29,0,1.34.95,2.98,3.58,2.5,20.68-6.87,34.7-26.49,34.7-49.42C102.56,21.77,79.3,0,50.62,0Zm-30.52,71.32c-.27.21-.21.68.14,1.08.33.33.81.48,1.08.21.27-.21.21-.68-.14-1.08-.33-.33-.81-.48-1.08-.21Zm-2.23-1.67c-.14.27.06.6.48.81.33.21.74.14.89-.14.14-.27-.06-.6-.48-.81-.41-.12-.74-.06-.89.14Zm6.7,7.36c-.33.27-.21.89.27,1.28.48.48,1.08.54,1.34.21.27-.27.14-.89-.27-1.28-.45-.48-1.08-.54-1.34-.21Zm-2.36-3.04c-.33.21-.33.74,0,1.22s.89.68,1.16.48c.33-.27.33-.81,0-1.28-.29-.48-.83-.68-1.16-.41h0Z"/>
  </g>
</svg>