<?xml version="1.0" encoding="UTF-8"?>
<svg class="our-links" xmlns="http://www.w3.org/2000/svg" viewBox="0 0 100 100">
  <g>
    <path d="m92.86,0H7.12C3.19,0,0,3.24,0,7.21v85.58c0,3.97,3.19,7.21,7.12,7.21h85.74c3.93,0,7.14-3.24,7.14-7.21V7.21C100,3.24,96.79,0,92.86,0ZM30.22,85.71h-14.82v-47.72h14.84v47.72h-.02Zm-7.41-54.24c-4.75,0-8.59-3.86-8.59-8.59s3.84-8.59,8.59-8.59,8.59,3.86,8.59,8.59-3.84,8.59-8.59,8.59Zm62.97,54.24h-14.82v-23.21c0-5.54-.11-12.66-7.7-12.66s-8.91,6.03-8.91,12.25v23.62h-14.82v-47.72h14.22v6.52h.2c1.99-3.75,6.83-7.7,14.04-7.7,15,0,17.79,9.89,17.79,22.75v26.16Z"/>
  </g>
</svg>